<?xml version="1.0" standalone="no"?>
<!DOCTYPE svg PUBLIC "-//W3C//DTD SVG 20010904//EN"
 "http://www.w3.org/TR/2001/REC-SVG-20010904/DTD/svg10.dtd">
<svg version="1.0" xmlns="http://www.w3.org/2000/svg"
 width="4096.000000pt" height="2160.000000pt" viewBox="0 0 4096.000000 2160.000000"
 preserveAspectRatio="xMidYMid meet">

<g transform="translate(0.000000,2160.000000) scale(0.100000,-0.100000)"
fill="#000000" stroke="none">
<path d="M12670 18120 c-30 -11 -63 -19 -73 -19 -10 -1 -38 -10 -63 -21 -25
-12 -72 -22 -107 -24 -97 -5 -188 -32 -214 -63 -16 -20 -35 -29 -75 -34 -93
-13 -159 -30 -191 -48 -18 -10 -45 -25 -62 -33 -16 -9 -69 -35 -118 -59 -218
-109 -291 -153 -332 -199 -11 -12 -54 -49 -96 -80 -41 -32 -100 -80 -130 -108
-30 -27 -68 -56 -85 -65 -31 -16 -61 -48 -134 -142 -21 -27 -83 -102 -137
-166 -54 -65 -105 -130 -113 -145 -36 -71 -102 -165 -129 -185 -19 -14 -45
-56 -74 -118 -127 -273 -158 -345 -178 -417 -28 -104 -35 -117 -62 -110 -41 9
-371 37 -537 44 -351 15 -821 -4 -1160 -47 -275 -35 -725 -133 -812 -177 -26
-13 -62 -24 -79 -24 -49 0 -165 -38 -196 -64 -15 -13 -51 -28 -79 -34 -28 -6
-82 -23 -120 -37 -38 -15 -114 -42 -169 -61 -122 -43 -460 -206 -495 -239 -14
-13 -45 -31 -69 -41 -51 -20 -230 -126 -360 -213 -49 -33 -107 -65 -128 -71
-25 -8 -45 -22 -55 -40 -9 -16 -43 -46 -75 -67 -32 -21 -118 -84 -191 -141
-73 -57 -147 -109 -165 -117 -18 -7 -39 -25 -46 -39 -8 -14 -41 -47 -74 -72
-65 -51 -197 -173 -263 -243 -23 -24 -58 -60 -78 -80 -202 -200 -264 -265
-299 -316 -35 -52 -151 -200 -168 -215 -3 -3 -18 -22 -34 -43 -15 -21 -41 -45
-56 -53 -16 -8 -32 -26 -35 -40 -4 -15 -28 -54 -54 -88 -69 -90 -200 -285
-200 -298 0 -6 -24 -50 -53 -97 -30 -47 -73 -119 -96 -158 -23 -40 -46 -73
-50 -73 -11 0 -166 -316 -190 -388 -11 -31 -37 -95 -59 -143 -22 -47 -65 -157
-95 -245 -30 -87 -67 -190 -81 -229 -14 -38 -32 -99 -40 -134 -8 -34 -26 -79
-39 -100 -22 -32 -81 -253 -136 -506 -41 -188 -99 -565 -120 -780 -48 -487
-38 -965 30 -1490 21 -160 66 -416 98 -555 10 -47 29 -128 40 -180 42 -183 75
-286 96 -293 6 -3 18 -33 24 -67 7 -34 37 -137 67 -228 30 -91 54 -169 54
-174 0 -4 25 -65 56 -136 31 -70 71 -166 89 -214 19 -48 66 -149 104 -223 39
-75 71 -142 71 -150 0 -8 10 -21 23 -30 13 -8 34 -34 47 -57 12 -24 46 -81 75
-128 28 -47 65 -114 82 -150 17 -36 68 -117 112 -180 45 -63 91 -135 102 -159
12 -24 60 -82 108 -130 47 -47 109 -122 138 -166 29 -44 69 -104 90 -133 54
-77 471 -504 578 -594 23 -18 59 -53 80 -77 22 -24 65 -60 95 -80 30 -19 107
-76 170 -126 63 -50 130 -100 148 -110 17 -11 35 -27 38 -37 9 -28 59 -65 163
-116 54 -27 150 -84 214 -126 64 -42 120 -76 125 -76 4 0 30 -20 55 -45 26
-25 56 -45 66 -45 24 0 101 -34 133 -59 13 -11 45 -28 69 -37 24 -9 51 -23 59
-30 9 -8 36 -20 60 -29 24 -9 51 -22 60 -30 22 -19 110 -58 198 -85 49 -16 79
-31 89 -46 8 -13 37 -30 66 -40 29 -9 70 -25 92 -35 61 -27 194 -66 249 -73
27 -3 66 -16 85 -27 20 -12 72 -30 116 -41 44 -10 108 -30 143 -44 36 -14 78
-24 100 -23 21 2 51 -5 67 -14 17 -9 69 -23 117 -31 52 -9 99 -23 115 -35 28
-20 68 -28 278 -58 61 -8 139 -19 175 -24 36 -6 99 -12 140 -14 41 -3 93 -9
115 -15 22 -5 118 -8 212 -7 140 2 174 -1 178 -12 5 -12 59 -13 343 -7 185 3
375 10 422 15 213 23 627 81 700 98 14 3 34 13 45 23 11 10 44 20 73 23 30 4
95 17 145 31 51 14 133 34 182 46 50 12 113 29 140 40 28 10 67 21 87 23 21 3
64 17 95 30 32 13 90 33 128 45 134 38 310 105 337 127 15 12 60 36 100 53 40
17 123 56 183 85 61 30 122 58 135 62 40 12 267 134 281 151 20 24 142 100
238 149 48 24 101 54 117 67 16 13 63 48 104 78 41 29 84 61 95 71 30 27 115
86 157 109 63 34 110 69 147 109 20 21 55 50 78 66 23 15 60 50 81 79 22 28
58 65 82 81 178 127 276 213 331 292 16 24 53 69 80 100 88 100 199 256 199
278 0 22 22 50 32 40 3 -3 27 20 54 52 27 32 57 67 67 78 61 66 127 155 127
169 0 10 16 32 36 49 19 18 49 57 66 87 18 30 43 70 57 89 14 18 41 60 61 91
19 32 57 91 85 132 70 103 313 581 331 651 9 32 24 73 34 90 10 18 28 64 40
102 13 39 33 79 45 90 28 25 41 50 50 100 4 22 10 45 14 50 36 47 166 512 225
800 40 195 58 299 86 497 11 77 22 144 25 148 27 43 59 884 42 1110 -4 58 -12
168 -17 245 -5 77 -14 181 -20 230 -6 50 -14 144 -19 210 -4 66 -16 161 -25
210 -9 50 -21 113 -26 140 -43 238 -207 831 -265 960 -8 17 -24 55 -35 85 -12
30 -30 63 -41 73 -10 10 -19 24 -19 31 0 21 -48 132 -73 170 -14 19 -46 89
-72 156 -26 67 -58 137 -71 156 -44 65 -84 158 -84 197 0 16 6 18 48 15 64 -6
179 -36 224 -59 20 -10 50 -19 66 -19 16 0 42 -4 58 -9 16 -5 56 -14 89 -21
33 -7 81 -21 107 -31 26 -10 67 -19 93 -19 25 0 60 -7 76 -16 38 -19 291 -72
386 -81 69 -6 133 4 195 28 37 15 72 106 64 165 -7 57 -50 150 -73 163 -23 12
-116 161 -132 211 -6 20 -32 69 -58 110 -25 41 -83 147 -128 235 -45 88 -96
182 -113 209 -18 28 -32 55 -32 61 0 6 -13 21 -29 33 -16 12 -35 38 -41 59 -7
21 -30 71 -52 112 l-40 74 17 71 c9 39 21 96 25 126 5 30 16 96 24 145 29 173
38 336 32 585 -2 135 -9 286 -14 335 -10 98 -45 273 -68 337 -8 22 -14 49 -14
59 0 25 -43 162 -98 309 -37 101 -111 253 -181 376 -6 11 -24 49 -41 87 -20
45 -38 71 -55 79 -14 6 -40 38 -59 72 -19 34 -51 83 -70 111 -20 27 -36 54
-36 58 0 14 -85 120 -162 202 -102 109 -117 126 -131 157 -6 15 -23 32 -37 37
-14 4 -78 54 -143 110 -64 55 -136 113 -160 128 -23 14 -61 46 -83 71 -29 31
-82 66 -170 114 -250 133 -408 206 -492 227 -51 13 -90 28 -100 40 -29 34
-254 98 -443 125 -83 12 -189 16 -470 15 -325 -1 -370 -3 -419 -19z m728 -531
c13 -5 40 -9 60 -9 20 -1 62 -9 92 -20 30 -11 73 -20 95 -20 22 0 76 -14 120
-31 381 -145 491 -195 527 -238 14 -16 52 -43 84 -60 33 -16 99 -61 148 -100
49 -39 98 -71 109 -71 20 0 85 -64 147 -145 21 -27 77 -88 125 -135 48 -46 93
-97 101 -112 7 -14 27 -36 44 -48 16 -12 30 -30 30 -42 0 -36 31 -86 60 -98
16 -7 32 -20 35 -30 3 -9 32 -59 65 -110 33 -51 65 -109 71 -129 6 -20 31 -74
54 -121 23 -47 51 -110 63 -140 42 -108 121 -403 135 -505 14 -102 20 -742 8
-785 -14 -48 -42 -193 -51 -260 -4 -30 -20 -91 -35 -135 -16 -44 -27 -90 -27
-102 1 -12 15 -43 32 -69 16 -27 30 -53 30 -60 0 -28 93 -201 123 -229 18 -16
41 -50 51 -75 31 -75 84 -181 126 -255 22 -38 40 -74 40 -79 0 -12 -151 17
-385 73 -182 44 -397 91 -417 91 -6 0 -57 -46 -113 -102 -56 -57 -118 -114
-138 -128 -20 -14 -42 -37 -48 -52 -11 -27 -56 -61 -140 -108 -25 -14 -63 -37
-85 -53 -66 -47 -176 -117 -208 -134 -16 -8 -52 -33 -79 -54 -27 -22 -55 -39
-62 -39 -7 0 -64 -22 -126 -49 -201 -86 -304 -117 -464 -142 -38 -6 -99 -15
-135 -21 -88 -13 -602 -25 -618 -14 -12 8 -86 20 -202 32 -30 3 -64 9 -75 14
-11 5 -40 11 -65 14 -44 5 -244 77 -305 110 -16 8 -54 21 -83 27 -40 8 -62 20
-90 49 -20 21 -66 52 -102 70 -36 18 -105 60 -153 94 -98 68 -96 67 -152 94
-22 10 -60 43 -84 73 -24 30 -94 108 -156 174 -62 66 -126 136 -142 155 -15
19 -36 44 -46 55 -10 11 -26 34 -34 50 -9 17 -36 52 -60 80 -25 27 -63 85 -85
128 -43 86 -128 282 -128 295 0 4 -5 13 -11 19 -34 34 -94 233 -109 363 -5 41
-14 104 -20 140 -21 126 -29 317 -24 545 3 127 9 239 14 250 4 11 13 53 20 94
11 74 36 172 91 349 96 311 322 698 526 900 16 15 46 49 68 77 67 84 177 185
202 185 12 0 28 8 35 18 17 24 153 129 177 137 11 3 26 17 35 30 17 25 124 84
251 137 214 90 264 109 329 128 135 37 265 59 431 70 132 9 469 2 503 -11z
m-3354 -2009 c19 -6 61 -10 93 -8 l58 3 -3 -179 c-1 -99 -5 -182 -8 -185 -3
-4 -256 -6 -562 -7 -536 -1 -620 -4 -802 -34 -36 -6 -101 -15 -145 -20 -44 -5
-109 -15 -145 -24 -36 -8 -77 -15 -91 -16 -15 0 -38 -9 -52 -20 -21 -17 -144
-52 -417 -120 -66 -17 -119 -34 -275 -88 -254 -88 -339 -123 -370 -153 -17
-16 -34 -29 -38 -29 -4 0 -44 -17 -90 -39 -45 -21 -93 -42 -107 -46 -14 -4
-41 -17 -60 -29 -19 -12 -102 -62 -183 -111 -95 -57 -158 -102 -178 -126 -18
-23 -42 -40 -61 -45 -36 -7 -77 -34 -241 -157 -62 -46 -124 -92 -139 -101 -14
-10 -31 -30 -36 -46 -7 -18 -24 -35 -47 -46 -35 -16 -96 -67 -239 -196 -37
-35 -93 -96 -124 -138 -30 -41 -106 -126 -169 -187 -73 -73 -119 -127 -129
-153 -9 -22 -30 -52 -47 -66 -16 -14 -44 -44 -60 -67 -17 -23 -43 -55 -59 -70
-15 -16 -35 -43 -43 -62 -9 -18 -29 -46 -45 -61 -16 -16 -30 -35 -30 -43 0
-17 -53 -111 -62 -111 -5 0 -8 -5 -8 -12 0 -6 -20 -30 -44 -53 -25 -23 -48
-54 -52 -71 -4 -16 -17 -42 -30 -57 -13 -15 -28 -45 -34 -66 -5 -21 -20 -51
-32 -66 -26 -33 -148 -273 -148 -292 0 -7 -23 -56 -50 -109 -27 -53 -50 -103
-50 -112 0 -8 -11 -34 -25 -58 -14 -23 -30 -65 -36 -93 -7 -34 -19 -57 -36
-71 -23 -18 -38 -53 -65 -150 -5 -19 -13 -51 -19 -70 -5 -19 -13 -53 -18 -75
-13 -56 -47 -183 -61 -225 -25 -77 -40 -143 -39 -168 1 -15 -8 -55 -20 -89
-11 -34 -21 -77 -21 -96 0 -18 -4 -37 -9 -42 -12 -13 -21 -81 -25 -172 -2 -40
-9 -79 -16 -88 -8 -10 -11 -30 -7 -59 4 -27 2 -47 -6 -55 -8 -8 -12 -50 -12
-124 -1 -68 -5 -120 -13 -134 -17 -30 -17 -605 0 -636 7 -13 11 -70 10 -152
-1 -98 2 -137 13 -159 11 -20 13 -43 9 -75 -4 -32 -1 -59 10 -84 10 -25 13
-53 9 -85 -3 -32 -1 -57 8 -73 7 -13 14 -44 15 -69 1 -44 13 -113 39 -220 37
-154 86 -345 109 -425 91 -313 94 -320 126 -330 15 -5 20 -15 20 -45 0 -22 15
-74 36 -122 20 -45 58 -138 85 -206 52 -130 114 -259 157 -326 14 -23 41 -72
59 -110 43 -87 88 -157 152 -237 28 -34 59 -81 70 -103 26 -57 238 -335 263
-344 4 -2 8 -14 8 -26 0 -13 17 -40 40 -64 22 -22 40 -45 40 -50 0 -6 14 -21
31 -34 52 -39 219 -202 219 -213 0 -6 66 -77 147 -158 102 -104 155 -150 176
-154 21 -4 37 -19 58 -54 17 -27 50 -60 77 -78 26 -16 64 -48 86 -71 21 -22
52 -48 70 -57 17 -8 52 -30 78 -49 26 -18 69 -45 97 -59 28 -14 51 -31 51 -39
0 -15 21 -30 195 -139 128 -80 251 -147 352 -190 34 -14 77 -40 94 -57 18 -17
44 -33 58 -36 14 -4 46 -19 71 -34 56 -35 127 -65 300 -125 74 -26 171 -61
215 -77 44 -16 109 -38 144 -48 35 -11 85 -30 110 -43 25 -14 62 -28 81 -32
19 -4 62 -15 95 -25 71 -22 238 -60 286 -65 19 -3 68 -12 109 -20 41 -9 89
-16 105 -17 17 0 54 -6 83 -14 29 -7 66 -11 83 -7 16 3 43 0 60 -7 17 -7 74
-14 127 -15 54 -1 106 -5 117 -10 11 -5 189 -9 396 -9 296 -1 379 2 392 12 11
9 40 12 101 9 47 -2 93 1 102 6 9 5 37 11 63 14 111 10 419 66 561 102 85 22
177 42 203 46 29 5 57 16 70 30 15 14 99 47 247 95 124 40 270 90 325 112 120
48 423 200 555 279 52 31 115 66 138 78 24 12 65 37 90 55 26 18 78 48 116 67
38 19 76 45 84 58 9 12 32 34 51 47 51 33 171 121 238 174 32 25 80 58 106 74
27 15 56 41 66 57 10 16 35 42 57 57 21 16 101 94 177 173 75 79 144 150 151
157 184 177 257 257 365 402 68 91 143 185 167 210 24 25 51 63 60 85 9 22 30
60 48 85 17 25 45 68 60 95 16 28 45 73 66 100 20 28 45 70 55 95 10 25 26 56
35 70 9 14 29 57 45 95 15 39 36 79 46 90 10 11 29 53 42 93 16 47 35 83 56
102 17 17 31 38 31 47 0 10 18 56 39 103 22 47 49 114 60 150 11 36 36 110 56
165 20 55 48 147 61 205 14 58 40 150 58 205 18 55 33 110 34 123 1 27 39 211
54 264 6 20 8 53 5 73 -3 21 0 55 7 79 8 22 17 66 21 96 3 30 11 87 16 125 33
235 52 939 27 999 -8 19 -11 70 -10 143 2 81 -2 127 -13 159 -8 25 -13 50 -10
55 3 4 1 28 -6 51 -6 24 -13 63 -15 88 -7 100 -41 305 -64 385 -5 17 -14 61
-21 100 -7 38 -20 88 -30 110 -10 22 -19 54 -19 71 0 38 -52 242 -90 356 -16
47 -34 107 -40 132 -5 25 -20 69 -33 98 -13 29 -32 76 -42 103 -10 28 -29 70
-42 94 -13 24 -23 50 -23 57 0 8 -10 20 -23 29 -13 8 -31 36 -40 62 -9 27 -31
68 -47 93 -16 25 -30 52 -30 60 0 16 48 58 95 82 17 9 42 30 57 46 23 26 104
62 139 62 4 0 30 -46 59 -102 29 -57 58 -110 64 -118 7 -8 17 -26 23 -40 5
-14 24 -56 41 -95 17 -38 41 -97 53 -130 12 -33 30 -79 41 -102 10 -23 18 -45
18 -48 0 -3 13 -23 29 -43 17 -20 35 -59 41 -87 7 -27 28 -96 47 -152 19 -56
43 -136 53 -178 10 -42 24 -83 31 -92 7 -8 16 -38 20 -67 21 -151 28 -185 43
-214 9 -17 16 -39 16 -49 0 -10 8 -54 19 -98 11 -44 25 -107 31 -140 6 -33 18
-85 25 -115 9 -34 12 -82 8 -125 -4 -49 0 -86 10 -123 10 -32 14 -70 11 -100
-3 -26 -1 -60 6 -77 23 -60 16 -1047 -9 -1165 -7 -30 -16 -89 -21 -130 -14
-124 -46 -305 -70 -400 -20 -80 -30 -144 -30 -189 0 -26 -4 -51 -9 -57 -16
-17 -51 -130 -51 -167 0 -20 -4 -46 -9 -59 -6 -13 -20 -57 -31 -98 -12 -41
-30 -99 -41 -128 -10 -30 -19 -69 -19 -89 0 -52 -48 -183 -77 -212 -25 -25
-83 -138 -83 -161 0 -11 -93 -220 -176 -397 -24 -51 -72 -142 -108 -202 -36
-60 -70 -128 -76 -150 -7 -26 -22 -49 -41 -63 -33 -25 -170 -224 -205 -298
-11 -25 -28 -51 -37 -59 -10 -7 -17 -18 -17 -23 0 -12 -163 -230 -185 -248 -8
-7 -15 -18 -15 -26 0 -7 -19 -26 -43 -43 -24 -16 -70 -60 -102 -98 -33 -37
-79 -88 -104 -113 -24 -25 -61 -67 -81 -95 -54 -71 -217 -227 -270 -258 -59
-35 -95 -67 -114 -105 -8 -16 -39 -47 -67 -68 -29 -22 -67 -50 -84 -64 -107
-84 -159 -120 -230 -163 -44 -26 -99 -68 -122 -93 -23 -24 -48 -44 -55 -44 -8
0 -31 -12 -53 -27 -100 -69 -209 -133 -225 -133 -9 0 -28 -8 -41 -19 -13 -10
-64 -39 -114 -64 -49 -25 -101 -57 -115 -72 -29 -31 -184 -108 -250 -124 -25
-6 -74 -25 -110 -41 -186 -83 -333 -141 -380 -150 -56 -11 -65 -14 -95 -40
-11 -9 -33 -22 -50 -28 -62 -22 -364 -102 -465 -122 -58 -12 -136 -31 -175
-41 -89 -23 -196 -42 -260 -45 -27 -1 -74 -7 -102 -13 -29 -6 -60 -8 -68 -4
-9 3 -41 -2 -71 -12 -42 -13 -78 -16 -141 -13 -54 3 -100 0 -122 -8 -49 -16
-771 -18 -810 -1 -14 6 -84 11 -156 12 -103 1 -137 5 -162 18 -18 10 -62 19
-105 22 -40 2 -109 12 -153 21 -44 8 -96 18 -115 20 -65 9 -235 51 -341 85
-31 10 -90 24 -130 30 -41 7 -85 18 -99 24 -14 7 -41 16 -60 20 -19 4 -56 20
-82 37 -41 26 -214 88 -245 88 -12 0 -76 26 -136 56 -16 8 -34 14 -42 14 -7 0
-89 38 -183 85 -94 47 -183 85 -197 85 -17 0 -37 11 -55 29 -15 17 -51 42 -81
56 -91 44 -187 99 -211 122 -13 13 -57 39 -97 58 -91 45 -187 109 -201 135 -6
11 -32 31 -58 44 -26 13 -56 34 -67 46 -22 25 -135 103 -198 137 -23 13 -57
38 -77 57 -19 18 -45 39 -57 45 -12 6 -31 28 -43 49 -12 21 -41 50 -66 66 -24
15 -59 45 -77 65 -17 21 -50 49 -72 63 -22 14 -49 35 -60 48 -11 12 -33 29
-48 37 -17 8 -37 32 -47 56 -11 24 -58 80 -110 132 -50 50 -100 106 -111 126
-12 20 -34 44 -50 53 -16 9 -36 32 -45 49 -9 18 -32 53 -50 78 -19 26 -34 50
-34 53 0 4 -28 35 -62 69 -51 52 -128 154 -128 171 0 7 -70 109 -90 131 -10
11 -27 38 -38 60 -11 22 -29 48 -39 58 -11 9 -30 41 -42 70 -13 28 -30 63 -37
77 -8 14 -32 59 -54 101 -21 42 -49 83 -62 91 -23 15 -60 79 -73 127 -4 13
-20 44 -36 69 -16 25 -29 52 -29 59 0 7 -24 62 -54 121 -29 59 -57 123 -61
142 -4 19 -13 49 -21 65 -24 54 -74 193 -117 325 -14 41 -36 106 -51 143 -14
37 -26 78 -26 91 0 12 -11 37 -25 56 -14 19 -25 47 -25 63 0 16 -14 81 -31
145 -17 65 -35 144 -39 177 -5 33 -15 89 -24 125 -8 36 -15 84 -16 106 0 23
-7 61 -15 85 -10 27 -14 58 -10 79 3 20 1 49 -5 65 -6 16 -12 64 -14 107 -2
60 -6 82 -22 99 -15 17 -18 32 -15 78 2 31 3 72 3 91 -3 860 -3 943 8 976 7
20 10 62 8 93 -3 34 0 71 9 96 8 23 11 55 8 76 -4 23 0 56 10 88 10 28 14 58
11 67 -4 9 0 42 8 73 8 31 22 94 31 141 43 219 99 437 121 471 13 19 24 44 24
55 0 10 18 71 41 134 22 63 45 137 51 164 6 27 31 97 55 155 25 58 62 154 83
214 22 59 66 160 98 225 33 64 63 131 66 147 4 17 24 53 46 80 22 28 48 63 58
78 9 16 31 52 49 80 17 29 48 84 68 122 20 39 77 131 126 206 49 74 89 139 89
143 0 18 87 133 148 196 97 100 159 173 202 238 54 81 470 486 625 607 33 26
78 67 100 91 22 24 63 59 92 76 28 18 98 65 155 105 57 40 123 86 147 102 23
17 64 52 90 78 30 30 63 53 90 61 23 7 59 23 80 36 44 28 237 130 366 194 50
24 93 48 96 53 3 5 45 25 95 44 49 20 100 42 115 50 14 7 52 24 85 36 32 12
64 25 69 29 6 5 39 16 75 25 88 22 455 142 505 165 45 20 71 27 280 72 83 18
166 31 185 30 19 -1 49 3 65 8 17 5 55 12 85 14 30 2 68 9 83 15 16 6 45 9 65
6 20 -3 57 0 81 8 57 18 1050 15 1105 -3z m36 -2394 c222 -25 425 -66 645
-131 61 -18 135 -38 165 -45 115 -24 143 -38 187 -89 23 -27 55 -52 70 -56 17
-4 56 -37 98 -83 46 -50 104 -98 170 -140 55 -36 119 -82 142 -103 24 -22 52
-39 63 -39 12 0 36 -11 54 -25 18 -13 71 -42 118 -64 48 -22 89 -45 92 -50 4
-6 36 -24 71 -42 68 -33 80 -54 49 -80 -9 -8 -27 -31 -41 -51 -22 -36 -137
-155 -299 -309 -61 -59 -126 -127 -204 -214 -13 -15 -36 -32 -50 -37 -14 -5
-56 -43 -95 -84 -101 -109 -184 -191 -258 -257 -36 -31 -72 -72 -81 -90 -8
-19 -29 -44 -47 -57 -17 -14 -39 -41 -50 -62 -12 -23 -34 -45 -57 -57 -21 -11
-66 -49 -100 -85 -34 -36 -69 -66 -78 -66 -23 0 -72 -37 -79 -60 -4 -11 -19
-27 -34 -35 -15 -7 -43 -39 -62 -69 -20 -34 -40 -56 -51 -56 -9 0 -48 27 -85
60 -73 65 -141 97 -312 146 -86 24 -97 25 -323 22 -232 -4 -233 -4 -329 -36
-106 -35 -181 -72 -219 -106 -25 -23 -115 -86 -123 -86 -2 0 -19 23 -37 52
-19 29 -96 115 -172 192 -76 78 -169 172 -206 210 -37 37 -84 77 -104 87 -22
11 -47 37 -63 62 -14 24 -55 72 -91 107 -36 35 -83 86 -104 114 -37 51 -113
126 -128 126 -14 1 -209 195 -225 225 -8 17 -61 74 -116 128 -55 53 -103 107
-107 120 -3 12 -26 37 -50 55 -25 18 -49 43 -53 55 -15 39 -115 133 -154 146
-45 15 -47 26 -6 40 17 6 61 32 97 59 37 27 91 61 120 77 28 15 52 32 52 36 0
8 137 100 210 141 25 14 65 37 90 52 25 15 70 38 100 52 30 14 73 35 94 45 22
10 43 19 48 19 4 0 45 22 90 49 91 53 168 83 418 160 227 70 452 114 710 141
114 12 473 4 640 -14z m-3490 -240 c0 -2 -7 -7 -16 -10 -8 -3 -12 -2 -9 4 6
10 25 14 25 6z m-120 -139 c0 -2 -10 -12 -22 -23 l-23 -19 19 23 c18 21 26 27
26 19z m-138 -149 c-7 -7 -12 -8 -12 -2 0 14 12 26 19 19 2 -3 -1 -11 -7 -17z
m-22 -22 c0 -2 -8 -10 -17 -17 -16 -13 -17 -12 -4 4 13 16 21 21 21 13z m-290
-365 c-5 -11 -15 -23 -22 -27 -7 -5 -8 -2 -3 7 21 37 44 55 25 20z m8025 -284
c8 -13 26 -51 39 -83 12 -33 36 -78 53 -101 71 -99 190 -452 264 -788 12 -55
32 -143 45 -195 13 -52 24 -118 24 -146 0 -28 5 -65 10 -81 6 -17 13 -66 15
-109 5 -117 21 -265 31 -296 5 -15 7 -84 4 -153 l-5 -126 -305 -2 c-341 -3
-345 -4 -392 -74 -43 -65 -58 -92 -58 -102 0 -6 16 -44 35 -84 27 -56 45 -81
75 -101 l40 -26 295 0 c227 0 297 -3 300 -12 11 -29 -14 -302 -38 -423 -15
-71 -41 -209 -58 -305 -17 -96 -36 -180 -41 -187 -5 -6 -8 -28 -7 -50 1 -21
-7 -60 -18 -88 -21 -51 -52 -151 -93 -305 -13 -47 -31 -101 -41 -120 -10 -19
-25 -57 -34 -83 -9 -26 -27 -60 -40 -76 -13 -15 -27 -41 -31 -57 -6 -24 -135
-292 -177 -369 -6 -11 -26 -51 -45 -90 -19 -38 -63 -112 -98 -162 -35 -51 -64
-102 -64 -114 0 -13 -37 -60 -97 -123 -99 -102 -146 -162 -194 -242 -14 -24
-84 -108 -156 -186 -183 -199 -173 -189 -339 -333 -82 -71 -171 -153 -199
-180 -60 -61 -128 -115 -145 -115 -7 0 -32 -17 -55 -37 -40 -37 -61 -51 -149
-101 -23 -13 -50 -32 -61 -42 -11 -10 -36 -25 -55 -35 -19 -10 -45 -30 -57
-45 -14 -17 -54 -41 -100 -60 -43 -18 -85 -38 -93 -45 -8 -6 -42 -26 -75 -42
-33 -17 -78 -40 -100 -51 -76 -40 -255 -122 -265 -122 -13 0 -48 -20 -75 -41
-38 -31 -301 -128 -455 -169 -85 -22 -207 -54 -270 -71 -162 -43 -434 -89
-550 -93 -36 -1 -86 -8 -112 -15 -70 -19 -151 -7 -191 29 l-32 28 -5 374 c-3
257 -9 379 -17 393 -15 26 -62 69 -92 85 -13 6 -46 12 -74 12 -60 -1 -129 -39
-165 -92 l-24 -35 5 -332 c3 -182 2 -352 0 -376 -5 -40 -9 -47 -43 -62 -81
-37 -483 3 -850 84 -277 61 -686 196 -735 241 -11 11 -77 42 -145 70 -292 120
-497 224 -573 290 -23 21 -58 45 -77 55 -85 42 -361 235 -420 293 -35 35 -78
71 -95 79 -33 18 -60 39 -189 157 -49 45 -102 99 -118 120 -28 39 -110 126
-229 241 -34 33 -82 89 -107 125 -25 36 -64 88 -87 115 -67 81 -160 215 -193
280 -16 33 -44 74 -62 90 -48 45 -118 169 -220 385 -104 220 -195 442 -235
575 -16 50 -36 99 -45 110 -67 76 -233 885 -242 1175 l-3 95 245 -4 c273 -4
290 -1 346 60 29 32 54 94 54 135 0 18 10 19 160 19 l160 0 0 -31 c0 -47 25
-110 59 -146 33 -36 25 -35 435 -30 l219 2 48 49 49 48 0 77 c0 86 -8 99 -82
138 -37 19 -63 23 -190 28 -80 3 -150 8 -154 12 -4 4 -2 27 5 50 6 24 18 96
26 160 8 65 19 137 25 160 5 24 10 59 10 79 0 20 8 65 19 100 10 35 33 127 51
204 17 77 50 185 72 240 60 148 98 253 116 318 15 53 19 58 54 69 83 25 148
113 148 202 0 41 4 47 157 249 73 96 136 182 139 191 5 13 11 11 33 -12 15
-15 44 -49 65 -77 46 -61 128 -146 236 -245 45 -41 93 -94 107 -117 26 -44
136 -153 155 -153 15 0 189 -179 238 -245 43 -58 232 -245 247 -245 16 0 57
-41 100 -100 22 -30 104 -117 181 -193 78 -76 151 -154 162 -173 12 -19 43
-46 68 -61 26 -15 48 -27 50 -28 9 -6 -13 -34 -39 -49 -43 -25 -104 -153 -134
-281 -22 -93 -25 -127 -25 -307 0 -222 6 -272 55 -430 41 -131 61 -175 83
-180 10 -3 37 -43 60 -89 35 -67 65 -105 150 -191 66 -67 125 -117 157 -133
28 -15 60 -41 72 -60 13 -20 35 -38 50 -41 16 -4 53 -20 83 -35 75 -37 150
-65 245 -89 67 -16 113 -20 286 -20 259 0 368 19 534 95 61 28 91 53 240 201
195 195 215 219 254 311 16 38 45 106 66 153 71 165 112 398 102 580 -8 137
-56 361 -103 478 l-37 92 95 102 c53 57 133 137 178 178 45 41 105 99 134 129
28 29 124 128 214 218 89 91 169 178 177 193 8 16 24 32 36 35 12 4 94 81 183
171 209 211 288 291 447 447 129 126 131 128 155 113 13 -9 31 -30 40 -48 21
-41 117 -171 170 -231 29 -33 44 -60 49 -90 11 -60 43 -124 77 -150 16 -12 46
-37 67 -55 50 -42 74 -37 202 39 54 32 110 61 124 65 14 3 41 25 60 48 20 25
59 55 92 71 32 16 104 64 161 107 57 43 123 89 147 102 62 35 143 93 197 141
26 24 68 52 93 64 24 11 53 27 62 35 80 66 85 67 108 33z m-4190 -1627 c17
-10 57 -25 90 -35 33 -9 71 -23 85 -30 14 -8 54 -28 89 -45 115 -56 200 -153
270 -309 94 -206 94 -401 2 -610 -16 -36 -35 -81 -42 -100 -15 -41 -116 -151
-173 -190 -49 -34 -195 -97 -253 -109 -23 -5 -53 -19 -67 -30 -22 -17 -42 -20
-128 -21 -92 -1 -105 1 -118 19 -9 12 -36 24 -70 30 -66 12 -196 77 -265 132
-27 22 -79 72 -115 112 -54 59 -72 88 -97 157 -42 114 -53 167 -56 284 -2 71
2 121 14 170 42 169 75 230 191 346 104 106 202 168 309 195 35 9 74 25 87 35
33 26 203 26 247 -1z"/>
<path d="M12946 17044 c-166 -51 -268 -187 -311 -414 -5 -29 -95 -98 -195
-151 -76 -40 -275 -226 -296 -276 -8 -18 -25 -40 -38 -48 -58 -38 -137 -189
-172 -327 -41 -164 -46 -217 -51 -506 l-4 -272 -72 -36 c-112 -57 -230 -139
-283 -197 -39 -43 -57 -74 -87 -158 -35 -98 -37 -110 -37 -221 0 -92 4 -129
20 -170 24 -64 102 -164 158 -201 l41 -27 401 -2 400 -3 3 -115 c3 -98 8 -128
34 -202 46 -129 87 -184 204 -273 112 -84 162 -112 262 -145 60 -19 83 -21
210 -18 132 4 148 6 223 36 81 32 228 126 293 186 46 43 72 87 111 186 30 76
34 99 38 207 l4 122 367 3 366 3 75 36 c92 44 127 79 182 183 l43 81 0 120
c-1 109 -4 128 -33 209 -17 49 -43 106 -56 127 -39 58 -232 210 -338 264 l-46
24 -5 273 c-4 229 -8 288 -25 368 -44 198 -101 332 -181 423 -28 32 -51 62
-51 68 0 5 -34 45 -76 89 -72 75 -188 161 -282 209 -61 31 -142 115 -142 146
0 46 -39 139 -94 221 -61 91 -139 152 -229 179 -67 20 -264 19 -331 -1z m1472
-2609 c-3 -3 -9 2 -12 12 -6 14 -5 15 5 6 7 -7 10 -15 7 -18z"/>
<path d="M9607 12962 c-32 -14 -42 -27 -63 -77 -23 -59 -24 -67 -24 -334 l0
-274 53 -52 c56 -57 115 -83 161 -71 15 4 49 28 76 54 l50 48 0 311 c0 305 0
311 -22 343 -46 67 -148 90 -231 52z"/>
<path d="M13007 9900 l-198 -5 -44 -46 c-27 -29 -46 -60 -50 -82 -9 -48 21
-144 56 -179 l27 -28 307 0 c202 0 313 4 327 11 25 13 78 128 78 168 0 71 -59
144 -126 157 -48 9 -143 10 -377 4z"/>
<path d="M6499 8051 c-57 -22 -278 -170 -341 -228 -26 -24 -53 -43 -59 -43
-25 0 -238 -151 -270 -191 -27 -34 -34 -53 -37 -100 -2 -32 -2 -69 2 -83 15
-59 103 -126 166 -126 71 0 221 85 335 190 54 50 212 156 311 209 86 45 113
77 134 155 l17 66 -27 52 c-15 29 -46 68 -70 86 -49 37 -90 41 -161 13z"/>
<path d="M12795 8046 c-35 -16 -59 -36 -80 -67 -26 -39 -30 -51 -27 -107 2
-69 20 -112 55 -137 74 -54 374 -245 384 -245 7 0 24 -15 38 -34 43 -56 222
-168 293 -182 34 -7 58 4 122 55 68 53 70 57 70 146 l0 81 -42 41 c-24 23 -95
75 -159 116 -63 41 -138 95 -166 119 -28 23 -82 62 -120 84 -37 23 -108 67
-157 98 -102 64 -131 69 -211 32z"/>
<path d="M9619 7220 c-70 -37 -74 -56 -74 -392 l0 -297 30 -31 c40 -43 86 -60
156 -60 55 0 60 2 104 45 l46 44 -3 314 c-3 299 -4 316 -23 337 -54 59 -164
78 -236 40z"/>
<path d="M7575 6441 c-16 -10 -39 -29 -51 -42 -37 -42 -195 -269 -204 -293 -9
-23 8 -115 28 -152 6 -11 30 -34 53 -50 36 -25 52 -29 109 -29 90 0 152 36
195 115 17 30 51 87 77 125 54 83 65 127 48 193 -22 80 -38 102 -93 128 -62
29 -121 31 -162 5z"/>
<path d="M11725 6448 c-51 -18 -116 -78 -136 -125 -29 -68 -25 -97 20 -146 40
-44 121 -167 121 -184 0 -17 81 -103 112 -119 36 -18 74 -12 140 24 53 28 85
72 94 132 11 65 -4 107 -71 206 -35 52 -76 114 -91 139 -42 72 -113 100 -189
73z"/>
<path d="M20886 15402 c-55 -29 -77 -48 -105 -91 -46 -70 -50 -130 -22 -347
19 -147 20 -178 10 -365 -6 -112 -14 -631 -18 -1154 -7 -851 -10 -956 -25
-1010 -24 -83 -17 -131 33 -212 50 -82 71 -98 153 -120 116 -30 236 11 296
102 70 107 88 229 98 663 l7 277 40 85 c89 190 254 398 372 469 115 70 255 93
308 51 46 -36 49 -65 51 -484 2 -515 18 -649 120 -1003 40 -143 65 -181 142
-219 49 -24 63 -26 137 -22 70 4 91 10 147 40 76 41 104 77 121 156 10 50 8
74 -15 202 -79 440 -114 730 -125 1045 -13 345 -41 492 -116 621 -49 84 -180
177 -280 198 -69 15 -230 22 -323 15 -198 -15 -370 -83 -507 -199 -39 -33 -74
-60 -79 -60 -5 0 -6 91 -2 213 18 612 18 720 3 840 -26 193 -70 266 -191 316
-99 41 -142 40 -230 -7z"/>
<path d="M19107 15149 c-116 -15 -208 -37 -241 -59 -34 -22 -78 -43 -201 -97
-134 -59 -324 -196 -383 -275 -22 -29 -76 -92 -120 -140 -92 -98 -114 -137
-148 -253 -36 -124 -46 -215 -34 -307 17 -138 68 -220 179 -290 36 -22 83 -56
103 -74 49 -43 78 -58 200 -98 138 -46 334 -73 608 -86 373 -16 567 -62 643
-150 48 -56 82 -159 82 -245 -1 -63 -5 -78 -41 -145 -39 -72 -44 -77 -135
-132 -283 -172 -574 -248 -903 -235 -117 4 -154 9 -215 31 -145 51 -196 95
-274 238 -56 102 -77 121 -166 149 -81 25 -147 19 -222 -19 -42 -22 -60 -39
-90 -90 -46 -78 -57 -145 -41 -256 21 -144 99 -263 236 -361 34 -24 71 -53 81
-65 27 -30 76 -54 182 -89 194 -64 371 -86 638 -78 298 9 461 35 750 120 62
19 328 155 415 213 120 81 191 146 237 219 119 190 138 267 130 509 -4 109
-12 193 -22 231 -58 212 -240 421 -455 523 -165 77 -318 105 -703 128 -268 15
-358 29 -474 74 -93 36 -119 53 -143 93 -41 66 -17 135 83 238 118 121 306
200 535 225 157 17 133 19 482 -41 191 -33 276 -31 342 8 73 43 134 139 145
228 l6 50 -60 59 c-42 40 -87 71 -146 99 -47 23 -92 41 -100 41 -7 0 -36 11
-63 25 -72 36 -124 51 -261 74 -129 22 -309 26 -436 10z"/>
<path d="M27933 14992 c-63 -22 -114 -61 -142 -105 -38 -62 -42 -110 -27 -339
11 -163 12 -216 3 -225 -9 -9 -43 -8 -142 4 -71 8 -166 13 -211 11 -95 -5
-140 -27 -218 -107 -57 -58 -69 -105 -55 -211 8 -55 15 -70 47 -103 49 -50 88
-74 144 -86 64 -15 308 -41 378 -41 34 0 62 -5 68 -13 18 -22 44 -795 40
-1207 l-3 -375 23 -47 c62 -126 241 -172 385 -99 64 32 98 84 129 196 21 76
22 97 20 415 -1 184 -7 441 -12 570 -25 583 -25 544 -5 560 15 12 60 15 237
17 190 2 224 5 261 21 105 47 149 122 149 256 0 115 -37 171 -147 223 l-60 28
-232 0 -233 0 0 137 c0 304 -51 447 -178 504 -76 34 -152 40 -219 16z"/>
<path d="M30225 14320 c-566 -27 -810 -126 -918 -373 -45 -102 -55 -176 -45
-316 8 -111 41 -189 116 -273 26 -29 64 -73 83 -98 35 -43 163 -129 219 -145
14 -4 95 -40 180 -80 85 -40 166 -75 180 -80 14 -4 41 -20 61 -35 20 -16 64
-42 97 -58 123 -60 169 -113 157 -183 -9 -50 -57 -93 -128 -114 -179 -52 -289
-57 -405 -20 -135 44 -345 97 -403 102 -104 10 -215 -42 -255 -118 -19 -38
-18 -133 3 -176 9 -19 50 -70 91 -114 58 -62 90 -87 146 -113 151 -72 311
-101 566 -100 149 1 207 5 298 23 151 29 311 91 349 134 15 18 43 39 60 46 43
17 130 106 170 173 40 67 62 148 70 261 7 101 -11 187 -59 279 -39 74 -127
171 -186 205 -53 31 -97 62 -162 114 -48 40 -262 151 -346 179 -103 36 -268
125 -316 170 -103 99 -66 168 113 206 79 17 411 25 461 12 18 -6 30 -19 38
-43 24 -73 141 -132 242 -123 76 8 117 46 151 144 25 72 27 90 25 199 -3 107
-6 126 -29 170 -39 76 -90 109 -196 128 -121 22 -229 26 -428 17z"/>
<path d="M26390 14285 c-203 -34 -426 -119 -528 -202 -23 -19 -49 -33 -56 -30
-7 3 -19 25 -25 50 -15 53 -60 110 -104 134 -25 13 -58 18 -143 18 -106 0
-112 -1 -153 -29 -70 -49 -92 -97 -102 -234 -5 -64 -8 -502 -7 -972 l3 -855
22 -35 c52 -84 117 -120 214 -120 139 0 242 64 273 169 14 47 16 128 16 593 0
530 0 539 21 581 42 82 83 133 187 234 l106 102 129 46 c71 25 146 48 167 51
38 6 39 6 44 -27 3 -19 7 -87 10 -151 6 -127 19 -174 64 -221 44 -47 87 -61
187 -60 104 0 142 13 198 69 62 62 82 145 81 329 -1 184 -17 291 -54 371 -36
80 -86 133 -154 168 -51 26 -67 29 -183 32 -81 2 -160 -2 -213 -11z"/>
<path d="M23980 14259 c-236 -14 -540 -141 -606 -254 -10 -16 -39 -52 -64 -80
-26 -27 -65 -75 -87 -105 -23 -30 -54 -70 -71 -88 -21 -23 -45 -76 -76 -165
-70 -202 -81 -271 -80 -487 1 -216 16 -297 87 -483 38 -99 53 -125 94 -165 26
-27 73 -75 103 -108 139 -150 232 -217 350 -252 242 -72 519 -60 726 30 56 24
93 50 143 98 37 36 100 94 140 130 91 81 119 120 183 263 62 139 94 248 113
395 48 364 -20 706 -189 952 -55 80 -65 91 -156 163 -169 133 -322 173 -610
156z m215 -539 c53 -16 103 -70 148 -161 54 -110 70 -195 71 -389 1 -220 -24
-329 -98 -425 -90 -115 -191 -166 -346 -173 -123 -5 -178 14 -279 99 -103 88
-132 155 -146 339 -9 110 22 296 65 385 37 77 193 266 244 295 64 37 124 50
216 45 47 -2 103 -9 125 -15z"/>
<path d="M31152 11181 c-11 -7 -10 -9 3 -14 9 -4 14 -3 10 2 -3 5 1 12 7 14 7
3 9 6 3 6 -5 0 -16 -3 -23 -8z"/>
<path d="M31310 11186 c0 -3 14 -12 30 -21 17 -9 30 -13 30 -11 0 3 -13 12
-30 21 -16 9 -30 13 -30 11z"/>
<path d="M31019 11142 c-21 -21 -41 -52 -44 -68 -4 -16 -11 -39 -17 -51 -12
-24 -14 -55 -9 -158 2 -50 5 -64 11 -50 5 12 8 -34 8 -120 -1 -92 -3 -125 -8
-95 -7 44 -7 44 -8 -18 -1 -41 2 -61 8 -57 13 8 12 -865 0 -880 -13 -16 -20
-695 -7 -722 7 -16 6 -27 -3 -38 -10 -12 -10 -18 0 -30 9 -11 10 -18 1 -29 -7
-8 -12 -55 -13 -117 -1 -137 -1 -136 14 -121 7 7 13 48 14 99 1 49 3 88 3 88
1 0 3 126 6 279 3 192 1 284 -7 293 -7 9 -7 13 0 13 7 0 12 109 16 338 6 403
9 489 17 496 10 10 0 485 -11 505 -5 11 -10 53 -10 94 0 40 -3 77 -7 81 -11
11 -14 46 -4 46 8 0 8 12 -2 75 -1 6 4 9 12 7 10 -2 12 5 8 28 -5 22 -3 32 8
36 8 4 15 13 15 22 0 8 3 13 6 9 3 -3 15 3 27 14 11 10 29 19 39 19 22 0 23
16 4 36 -20 20 -24 19 -67 -24z"/>
<path d="M31270 11144 c0 -8 5 -12 10 -9 6 4 8 11 5 16 -9 14 -15 11 -15 -7z"/>
<path d="M31300 11139 c0 -14 30 -44 44 -44 6 0 11 -7 12 -15 2 -29 4 -31 20
-15 15 15 15 17 0 34 -9 10 -16 23 -16 31 0 10 -3 10 -15 0 -12 -10 -15 -10
-15 4 0 9 -7 16 -15 16 -8 0 -15 -5 -15 -11z"/>
<path d="M31377 11143 c-4 -3 -7 -11 -7 -16 0 -6 3 -7 7 -4 3 4 12 2 20 -5 21
-17 25 -3 5 15 -10 10 -22 14 -25 10z"/>
<path d="M31394 11065 c-3 -8 -2 -32 4 -52 l10 -38 1 53 c1 52 -5 65 -15 37z"/>
<path d="M21528 10989 c17 -18 15 -25 -7 -25 -12 0 -17 5 -13 14 4 11 1 12
-14 4 -24 -13 -84 -71 -85 -83 -3 -18 -5 -25 -16 -44 -13 -25 -23 -201 -10
-183 6 9 7 6 4 -9 -3 -12 -2 -22 2 -21 19 2 29 -4 34 -23 3 -12 10 -18 16 -15
5 4 12 2 16 -4 4 -6 11 -8 16 -4 6 3 2 12 -9 20 -13 9 -19 24 -18 43 2 26 0
28 -21 20 -14 -5 -23 -5 -23 1 0 6 4 10 9 10 5 0 9 27 8 59 -1 32 -5 57 -9 54
-14 -8 -9 36 5 44 6 4 17 17 23 28 6 11 20 24 32 30 12 5 22 13 22 17 0 5 7 8
16 8 9 0 12 5 8 12 -5 8 -2 9 9 5 9 -3 19 -2 22 3 3 5 13 6 22 3 11 -4 14 -3
9 5 -4 7 -2 12 3 12 6 0 11 -5 11 -11 0 -8 4 -9 13 0 8 6 17 8 20 4 4 -3 7 -1
7 5 0 7 -8 13 -17 13 -36 3 -58 7 -78 14 -16 7 -18 6 -7 -6z"/>
<path d="M31463 10955 c0 -22 2 -30 4 -17 2 12 2 30 0 40 -3 9 -5 -1 -4 -23z"/>
<path d="M21653 10966 c21 -16 49 -15 55 2 2 8 -10 12 -35 12 -34 -1 -36 -2
-20 -14z"/>
<path d="M21881 10944 c0 -11 3 -14 6 -6 3 7 2 16 -1 19 -3 4 -6 -2 -5 -13z"/>
<path d="M21900 10945 c0 -8 7 -15 16 -15 14 0 14 3 4 15 -7 8 -14 15 -16 15
-2 0 -4 -7 -4 -15z"/>
<path d="M31401 10944 c0 -11 3 -14 6 -6 3 7 2 16 -1 19 -3 4 -6 -2 -5 -13z"/>
<path d="M21985 10940 c-3 -5 -1 -10 4 -10 6 0 11 5 11 10 0 6 -2 10 -4 10 -3
0 -8 -4 -11 -10z"/>
<path d="M22021 10934 c0 -11 3 -14 6 -6 3 7 2 16 -1 19 -3 4 -6 -2 -5 -13z"/>
<path d="M22070 10933 c0 -17 7 -19 64 -19 40 0 62 4 60 11 -2 5 -26 10 -52
10 -26 -1 -53 3 -59 8 -9 7 -13 4 -13 -10z"/>
<path d="M21948 10933 c7 -3 16 -2 19 1 4 3 -2 6 -13 5 -11 0 -14 -3 -6 -6z"/>
<path d="M22046 10925 c4 -8 8 -15 10 -15 2 0 4 7 4 15 0 8 -4 15 -10 15 -5 0
-7 -7 -4 -15z"/>
<path d="M22872 10924 c-11 -12 -9 -14 13 -14 17 0 25 5 24 18 0 12 -2 13 -6
3 -3 -8 -8 -9 -12 -3 -4 6 -11 5 -19 -4z"/>
<path d="M22931 10924 c0 -11 3 -14 6 -6 3 7 2 16 -1 19 -3 4 -6 -2 -5 -13z"/>
<path d="M22957 10933 c-13 -12 -7 -23 13 -23 13 0 20 6 19 18 0 12 -2 13 -6
3 -4 -9 -7 -10 -12 -2 -4 6 -10 8 -14 4z"/>
<path d="M23030 10925 c0 -8 5 -15 10 -15 6 0 10 7 10 15 0 8 -4 15 -10 15 -5
0 -10 -7 -10 -15z"/>
<path d="M23060 10926 c0 -12 8 -16 30 -14 32 2 39 12 15 22 -8 3 -15 0 -15
-6 0 -7 -5 -6 -15 2 -12 10 -15 9 -15 -4z"/>
<path d="M22685 10919 c-15 -6 -11 -8 18 -8 20 -1 37 1 37 3 0 9 -37 12 -55 5z"/>
<path d="M22750 10920 c0 -5 5 -10 10 -10 6 0 10 5 10 10 0 6 -4 10 -10 10 -5
0 -10 -4 -10 -10z"/>
<path d="M22780 10918 c0 -5 14 -8 30 -8 17 0 30 3 30 8 0 4 -13 7 -30 7 -16
0 -30 -3 -30 -7z"/>
<path d="M23005 10920 c-3 -5 -1 -10 4 -10 6 0 11 5 11 10 0 6 -2 10 -4 10 -3
0 -8 -4 -11 -10z"/>
<path d="M23750 10900 c0 -4 -12 -5 -27 -2 -21 3 -25 2 -17 -7 6 -7 52 -12
118 -14 82 -1 109 -5 116 -17 8 -13 10 -12 10 4 0 15 3 16 15 6 13 -10 15 -9
15 10 0 16 -4 20 -15 16 -8 -3 -15 -1 -15 4 0 5 -43 9 -100 8 -55 -1 -100 -5
-100 -8z"/>
<path d="M24007 10863 c22 -17 43 -16 43 1 0 8 -11 13 -30 12 -27 -1 -28 -2
-13 -13z"/>
<path d="M24061 10854 c0 -11 3 -14 6 -6 3 7 2 16 -1 19 -3 4 -6 -2 -5 -13z"/>
<path d="M24081 10848 c0 -16 1 -28 3 -28 18 0 36 15 35 29 0 10 -2 11 -6 4
-7 -18 -21 -16 -26 5 -3 10 -5 6 -6 -10z"/>
<path d="M24231 10671 c-1 -27 3 -52 9 -56 6 -4 10 14 10 49 0 69 -16 75 -19
7z"/>
<path d="M24190 10599 c0 -5 5 -9 10 -9 6 0 10 -11 10 -24 0 -14 4 -27 9 -30
11 -7 22 45 13 59 -9 13 -42 16 -42 4z"/>
<path d="M21501 10584 c0 -11 3 -14 6 -6 3 7 2 16 -1 19 -3 4 -6 -2 -5 -13z"/>
<path d="M24183 10498 c-2 -16 1 -18 10 -9 7 7 8 14 1 21 -6 6 -10 2 -11 -12z"/>
<path d="M30951 10454 c0 -11 3 -14 6 -6 3 7 2 16 -1 19 -3 4 -6 -2 -5 -13z"/>
<path d="M22459 10275 c-4 -5 -5 -68 -4 -140 2 -71 4 -146 4 -166 0 -19 7 -52
16 -73 9 -20 14 -40 11 -44 -3 -5 -1 -14 4 -22 6 -9 8 56 4 170 -3 101 -9 189
-14 195 -5 6 -10 28 -12 50 -2 22 -6 36 -9 30z"/>
<path d="M30952 10190 c0 -14 2 -19 5 -12 2 6 2 18 0 25 -3 6 -5 1 -5 -13z"/>
<path d="M30952 10130 c0 -14 2 -19 5 -12 2 6 2 18 0 25 -3 6 -5 1 -5 -13z"/>
<path d="M32682 10122 c-7 -2 -12 -8 -12 -14 0 -6 7 -8 15 -4 9 3 15 0 15 -9
0 -16 16 -21 23 -7 6 11 -27 39 -41 34z"/>
<path d="M29525 10063 c11 -3 26 -12 33 -21 11 -14 12 -14 12 0 0 17 -21 29
-48 27 -13 -1 -12 -3 3 -6z"/>
<path d="M25890 10046 c0 -2 7 -7 16 -10 8 -3 12 -2 9 4 -6 10 -25 14 -25 6z"/>
<path d="M29517 10043 c-13 -13 -7 -21 13 -16 11 3 17 9 14 14 -6 11 -18 12
-27 2z"/>
<path d="M36671 10024 c0 -11 3 -14 6 -6 3 7 2 16 -1 19 -3 4 -6 -2 -5 -13z"/>
<path d="M25423 10023 c9 -2 17 -11 17 -19 0 -8 5 -14 11 -14 6 0 8 7 5 16 -5
12 -2 15 9 10 9 -3 13 -2 10 4 -3 6 -21 9 -38 9 -18 -1 -24 -3 -14 -6z"/>
<path d="M29376 10013 c3 -11 15 -19 31 -20 19 -1 22 1 12 8 -11 7 -10 9 5 9
28 0 13 11 -22 16 -25 4 -30 2 -26 -13z"/>
<path d="M36464 10015 c8 -9 12 -23 9 -33 -4 -12 0 -11 14 6 11 12 31 23 44
23 21 1 20 2 -6 9 -16 4 -40 8 -53 9 -21 1 -22 -1 -8 -14z"/>
<path d="M36560 10020 c0 -5 5 -10 10 -10 6 0 10 5 10 10 0 6 -4 10 -10 10 -5
0 -10 -4 -10 -10z"/>
<path d="M36985 10010 c10 -11 20 -20 23 -20 3 0 -3 9 -13 20 -10 11 -20 20
-23 20 -3 0 3 -9 13 -20z"/>
<path d="M24780 10016 c0 -3 9 -10 20 -16 11 -6 20 -8 20 -6 0 3 -9 10 -20 16
-11 6 -20 8 -20 6z"/>
<path d="M27446 10013 c5 -5 12 -12 16 -18 4 -6 8 -2 8 8 0 9 -7 17 -17 17 -9
0 -12 -3 -7 -7z"/>
<path d="M33981 10004 c0 -11 3 -14 6 -6 3 7 2 16 -1 19 -3 4 -6 -2 -5 -13z"/>
<path d="M36911 10008 c-1 -20 14 -24 25 -6 4 6 3 8 -4 4 -5 -3 -13 0 -15 6
-3 8 -6 6 -6 -4z"/>
<path d="M24645 9990 c-4 -6 -3 -16 3 -22 6 -6 12 -6 17 2 4 6 3 16 -3 22 -6
6 -12 6 -17 -2z"/>
<path d="M27351 9984 c0 -11 3 -14 6 -6 3 7 2 16 -1 19 -3 4 -6 -2 -5 -13z"/>
<path d="M33910 9983 c0 -10 4 -14 8 -8 4 6 11 13 16 18 5 4 2 7 -7 7 -10 0
-17 -8 -17 -17z"/>
<path d="M36405 9990 c-4 -6 -14 -9 -22 -6 -8 3 -11 1 -8 -4 3 -6 12 -10 20
-10 15 0 30 18 22 26 -3 3 -8 0 -12 -6z"/>
<path d="M24526 9981 c-3 -5 6 -8 19 -8 14 0 25 3 25 8 0 5 -9 9 -19 9 -11 0
-22 -4 -25 -9z"/>
<path d="M24720 9977 c0 -6 3 -8 6 -4 4 3 15 -4 25 -16 l18 -22 1 25 c0 20 -5
25 -25 26 -14 1 -25 -3 -25 -9z"/>
<path d="M35754 9983 c10 -11 37 -12 30 -2 -3 5 -12 9 -21 9 -9 0 -13 -3 -9
-7z"/>
<path d="M25265 9970 c-16 -7 -17 -9 -3 -9 9 -1 20 4 23 9 7 11 7 11 -20 0z"/>
<path d="M36944 9968 c1 -7 7 -22 14 -33 9 -17 11 -17 12 -3 0 9 3 23 6 32 4
11 0 16 -14 16 -11 0 -19 -6 -18 -12z"/>
<path d="M24793 9940 c4 -14 7 -31 7 -38 0 -10 4 -10 16 2 14 14 13 18 -7 38
l-22 23 6 -25z"/>
<path d="M35843 9925 c15 -13 27 -34 27 -47 0 -25 20 -64 20 -40 0 7 5 10 10
7 18 -11 11 15 -16 54 -14 22 -35 41 -47 45 -20 4 -19 3 6 -19z"/>
<path d="M36985 9940 c3 -5 8 -20 10 -31 7 -34 15 -35 15 -2 0 19 -6 33 -16
37 -8 3 -12 2 -9 -4z"/>
<path d="M24459 9913 c-5 -16 -11 -33 -13 -38 -2 -6 2 -16 9 -22 10 -9 14 -9
19 2 3 8 1 17 -4 20 -6 4 -10 12 -10 18 0 8 3 8 9 -1 6 -10 10 -8 14 10 9 32
9 38 -3 38 -6 0 -15 -12 -21 -27z"/>
<path d="M27125 9930 c-3 -5 -1 -10 4 -10 6 0 11 5 11 10 0 6 -2 10 -4 10 -3
0 -8 -4 -11 -10z"/>
<path d="M29230 9930 c-8 -5 -10 -10 -5 -10 6 0 17 5 25 10 8 5 11 10 5 10 -5
0 -17 -5 -25 -10z"/>
<path d="M32124 9924 c-18 -14 -18 -15 4 -4 12 6 22 13 22 15 0 8 -5 6 -26
-11z"/>
<path d="M33630 9930 c-8 -5 -10 -10 -5 -10 6 0 17 5 25 10 8 5 11 10 5 10 -5
0 -17 -5 -25 -10z"/>
<path d="M35501 9926 c-15 -18 -24 -79 -11 -71 6 3 7 -1 4 -9 -4 -11 0 -16 10
-16 12 0 15 7 10 34 -3 19 0 37 6 41 12 8 14 35 1 35 -5 0 -14 -6 -20 -14z"/>
<path d="M36256 9921 c-10 -11 -25 -17 -33 -14 -13 5 -13 3 -2 -15 13 -20 13
-20 31 3 12 15 25 22 36 19 10 -4 13 -2 7 3 -5 4 -13 12 -16 16 -3 4 -14 -2
-23 -12z"/>
<path d="M36298 9933 c7 -3 16 -2 19 1 4 3 -2 6 -13 5 -11 0 -14 -3 -6 -6z"/>
<path d="M36152 9908 c-24 -10 -52 -28 -63 -39 -10 -10 -24 -19 -31 -19 -6 0
-8 -3 -4 -7 4 -4 -13 -15 -36 -24 -30 -13 -36 -18 -21 -18 12 -1 25 4 28 10 4
6 14 8 22 4 10 -3 22 3 30 15 12 17 18 19 30 9 11 -10 16 -10 22 0 4 6 14 11
21 9 7 -2 19 8 26 20 7 15 14 20 18 13 4 -6 12 -11 17 -11 5 0 2 11 -6 24 -13
19 -13 25 -3 29 7 3 9 5 3 5 -5 0 -29 -9 -53 -20z m8 -33 c7 -9 8 -15 2 -15
-5 0 -12 7 -16 15 -3 8 -4 15 -2 15 2 0 9 -7 16 -15z"/>
<path d="M24840 9910 c-1 -3 -4 -18 -6 -33 -3 -25 -1 -27 13 -15 10 8 14 8 10
1 -4 -6 -4 -14 1 -17 4 -2 9 4 9 15 1 10 -2 19 -7 19 -5 0 -11 8 -13 18 -3 9
-6 15 -7 12z"/>
<path d="M25140 9900 c0 -5 5 -10 11 -10 5 0 7 5 4 10 -3 6 -8 10 -11 10 -2 0
-4 -4 -4 -10z"/>
<path d="M25070 9890 c-8 -5 -10 -10 -5 -10 6 0 17 5 25 10 8 5 11 10 5 10 -5
0 -17 -5 -25 -10z"/>
<path d="M27028 9893 c6 -2 10 -9 6 -14 -3 -5 1 -9 9 -9 7 0 14 7 14 15 0 9
-9 15 -21 14 -12 0 -15 -3 -8 -6z"/>
<path d="M29130 9863 c-19 -20 -27 -33 -17 -30 9 4 24 10 34 14 11 4 14 3 9
-5 -4 -7 -3 -12 2 -12 11 0 25 26 27 53 3 27 -17 20 -55 -20z m50 7 c0 -5 -4
-10 -10 -10 -5 0 -10 5 -10 10 0 6 5 10 10 10 6 0 10 -4 10 -10z"/>
<path d="M32079 9883 c-13 -15 -12 -15 9 -4 23 12 28 21 13 21 -5 0 -15 -7
-22 -17z"/>
<path d="M33549 9883 c-13 -17 -13 -17 6 -3 11 8 22 16 24 17 2 2 0 3 -6 3 -6
0 -17 -8 -24 -17z"/>
<path d="M37028 9893 c7 -3 16 -2 19 1 4 3 -2 6 -13 5 -11 0 -14 -3 -6 -6z"/>
<path d="M26919 9854 c-23 -13 -23 -13 10 -7 24 4 32 3 27 -5 -5 -8 -2 -10 8
-6 9 3 16 10 16 14 0 15 -37 17 -61 4z"/>
<path d="M35920 9861 c0 -5 5 -13 10 -16 6 -3 10 -2 10 4 0 5 -4 13 -10 16 -5
3 -10 2 -10 -4z"/>
<path d="M30277 9845 c-4 -8 -2 -17 3 -20 6 -4 10 3 10 14 0 25 -6 27 -13 6z"/>
<path d="M32040 9850 c-8 -5 -12 -11 -9 -14 2 -3 11 -1 19 4 8 5 12 11 9 14
-2 3 -11 1 -19 -4z"/>
<path d="M33510 9850 c-9 -6 -10 -10 -3 -10 6 0 15 5 18 10 8 12 4 12 -15 0z"/>
<path d="M33546 9843 c-3 -7 -2 -13 3 -13 5 0 14 6 20 13 8 10 7 14 -4 14 -8
0 -16 -6 -19 -14z"/>
<path d="M34751 9843 c7 -12 15 -20 18 -17 3 2 -3 12 -13 22 -17 16 -18 16 -5
-5z"/>
<path d="M37035 9840 c3 -5 8 -10 11 -10 2 0 4 5 4 10 0 6 -5 10 -11 10 -5 0
-7 -4 -4 -10z"/>
<path d="M26910 9819 c0 -5 5 -7 10 -4 6 3 10 8 10 11 0 2 -4 4 -10 4 -5 0
-10 -5 -10 -11z"/>
<path d="M26849 9809 c-10 -6 -10 -9 -1 -9 22 0 27 -2 40 -12 6 -6 12 -6 12
-2 0 16 -36 33 -51 23z"/>
<path d="M28141 9804 c0 -11 3 -14 6 -6 3 7 2 16 -1 19 -3 4 -6 -2 -5 -13z"/>
<path d="M29071 9806 c-9 -11 -6 -13 18 -12 29 1 70 26 43 26 -7 0 -12 -4 -12
-10 0 -5 -5 -10 -11 -10 -5 0 -7 5 -4 10 9 15 -21 12 -34 -4z"/>
<path d="M30329 9803 c-13 -17 -13 -17 6 -3 11 8 22 16 24 17 2 2 0 3 -6 3 -6
0 -17 -8 -24 -17z"/>
<path d="M32000 9810 c-8 -5 -12 -11 -9 -14 2 -3 11 -1 19 4 8 5 12 11 9 14
-2 3 -11 1 -19 -4z"/>
<path d="M26037 9793 c-2 -5 -1 -19 4 -33 7 -23 7 -23 8 8 1 31 -3 40 -12 25z"/>
<path d="M34788 9793 c7 -3 16 -2 19 1 4 3 -2 6 -13 5 -11 0 -14 -3 -6 -6z"/>
<path d="M35915 9790 c3 -5 11 -10 16 -10 6 0 7 5 4 10 -3 6 -11 10 -16 10 -6
0 -7 -4 -4 -10z"/>
<path d="M35959 9783 c14 -28 17 -28 25 -6 4 10 4 14 0 10 -4 -4 -14 -1 -22 6
-13 10 -14 9 -3 -10z"/>
<path d="M37071 9788 c0 -7 4 -22 9 -33 8 -18 9 -17 9 7 1 15 -3 30 -9 33 -5
3 -10 0 -9 -7z"/>
<path d="M26823 9783 c-17 -6 -16 -20 1 -26 8 -3 19 0 26 7 12 15 -5 27 -27
19z"/>
<path d="M24925 9770 c-3 -5 -2 -10 4 -10 5 0 13 5 16 10 3 6 2 10 -4 10 -5 0
-13 -4 -16 -10z"/>
<path d="M28190 9773 c0 -5 4 -14 9 -21 6 -10 10 -9 14 7 3 14 0 21 -9 21 -8
0 -14 -3 -14 -7z"/>
<path d="M31960 9770 c-13 -8 -12 -10 3 -10 9 0 17 5 17 10 0 12 -1 12 -20 0z"/>
<path d="M22501 9744 c0 -11 3 -14 6 -6 3 7 2 16 -1 19 -3 4 -6 -2 -5 -13z"/>
<path d="M35471 9616 c0 -82 4 -144 9 -137 16 27 17 241 1 268 -8 13 -11 -20
-10 -131z"/>
<path d="M31909 9723 c-13 -17 -13 -17 6 -3 11 8 22 16 24 17 2 2 0 3 -6 3 -6
0 -17 -8 -24 -17z"/>
<path d="M22496 9705 c-7 -19 3 -47 15 -39 5 3 9 14 9 24 0 24 -16 34 -24 15z"/>
<path d="M26706 9684 c-9 -8 -20 -13 -25 -9 -6 3 -15 -4 -21 -15 -6 -11 -8
-20 -4 -20 4 0 -3 -11 -16 -25 -19 -21 -21 -25 -7 -25 9 0 17 3 17 8 0 10 46
63 51 58 2 -3 9 6 16 20 13 28 10 30 -11 8z"/>
<path d="M31850 9665 c-19 -19 -28 -35 -21 -35 7 0 10 -4 7 -8 -3 -5 1 -9 9
-9 10 0 12 4 5 12 -8 9 -6 15 6 19 10 4 21 2 24 -4 5 -8 9 -7 13 4 4 9 3 15
-1 15 -29 -5 -34 2 -17 21 31 34 11 22 -25 -15z"/>
<path d="M22950 9669 c0 -5 5 -7 10 -4 6 3 10 8 10 11 0 2 -4 4 -10 4 -5 0
-10 -5 -10 -11z"/>
<path d="M24430 9670 c0 -5 5 -10 10 -10 6 0 10 5 10 10 0 6 -4 10 -10 10 -5
0 -10 -4 -10 -10z"/>
<path d="M28950 9645 c-7 -9 -8 -15 -2 -15 5 0 12 7 16 15 3 8 4 15 2 15 -2 0
-9 -7 -16 -15z"/>
<path d="M22498 9638 c-3 -7 -3 -19 -1 -26 6 -16 33 4 33 24 0 17 -26 18 -32
2z"/>
<path d="M32575 9620 c-3 -5 -1 -10 4 -10 6 0 11 5 11 10 0 6 -2 10 -4 10 -3
0 -8 -4 -11 -10z"/>
<path d="M24432 9589 c-2 -19 2 -28 8 -24 12 7 14 55 2 55 -4 0 -9 -14 -10
-31z"/>
<path d="M22506 9572 c-3 -4 -3 -17 -1 -28 2 -10 4 -40 4 -66 1 -27 6 -48 11
-48 7 0 10 27 9 70 -2 65 -10 92 -23 72z"/>
<path d="M30426 9503 c-6 -14 -5 -15 5 -6 7 7 10 15 7 18 -3 3 -9 -2 -12 -12z"/>
<path d="M36656 9483 c-4 -16 -4 -52 -1 -81 3 -33 0 -60 -8 -72 -9 -15 -9 -24
0 -38 6 -10 9 -32 6 -48 -3 -20 -2 -25 5 -16 14 20 18 19 41 -8 22 -27 28 -21
10 11 -5 11 -12 69 -14 130 -3 73 -10 117 -19 130 -14 20 -14 20 -20 -8z"/>
<path d="M31626 9465 c-16 -24 -15 -24 6 -16 13 5 21 12 20 16 -2 4 2 12 10
16 10 7 9 9 -3 9 -9 0 -24 -11 -33 -25z"/>
<path d="M25625 9467 c-4 -10 -3 -23 3 -29 14 -14 21 3 12 27 -7 19 -8 19 -15
2z"/>
<path d="M27751 9435 c0 -38 2 -46 10 -33 6 11 6 29 0 50 -9 32 -9 31 -10 -17z"/>
<path d="M24441 9424 c0 -11 3 -14 6 -6 3 7 2 16 -1 19 -3 4 -6 -2 -5 -13z"/>
<path d="M35481 9424 c0 -11 3 -14 6 -6 3 7 2 16 -1 19 -3 4 -6 -2 -5 -13z"/>
<path d="M22510 9391 c0 -17 4 -32 9 -35 11 -7 22 31 14 50 -9 24 -23 15 -23
-15z"/>
<path d="M25626 9405 c-7 -19 3 -47 15 -39 12 7 12 54 0 54 -5 0 -11 -7 -15
-15z"/>
<path d="M29380 9405 c-7 -9 -8 -15 -2 -15 5 0 12 7 16 15 3 8 4 15 2 15 -2 0
-9 -7 -16 -15z"/>
<path d="M24442 9355 c0 -16 2 -22 5 -12 2 9 2 23 0 30 -3 6 -5 -1 -5 -18z"/>
<path d="M25622 9339 c2 -7 10 -15 17 -17 8 -3 12 1 9 9 -2 7 -10 15 -17 17
-8 3 -12 -1 -9 -9z"/>
<path d="M22527 9327 c-3 -8 -1 -20 4 -28 6 -10 9 -7 9 14 0 29 -5 35 -13 14z"/>
<path d="M25050 9299 c0 -5 5 -7 10 -4 6 3 10 8 10 11 0 2 -4 4 -10 4 -5 0
-10 -5 -10 -11z"/>
<path d="M22531 9248 c-1 -19 4 -28 14 -28 8 0 15 5 15 10 0 6 -4 10 -9 10 -5
0 -12 8 -14 18 -3 10 -5 6 -6 -10z"/>
<path d="M25020 9250 c-6 -11 -8 -20 -6 -20 3 0 10 9 16 20 6 11 8 20 6 20 -3
0 -10 -9 -16 -20z"/>
<path d="M27015 9260 c-3 -5 -1 -10 4 -10 6 0 11 5 11 10 0 6 -2 10 -4 10 -3
0 -8 -4 -11 -10z"/>
<path d="M29290 9260 c0 -5 5 -10 11 -10 5 0 7 5 4 10 -3 6 -8 10 -11 10 -2 0
-4 -4 -4 -10z"/>
<path d="M24439 8873 c-1 -423 -7 -778 -14 -809 -3 -12 2 -27 10 -34 13 -11
15 58 15 599 0 336 -2 611 -5 611 -3 0 -5 -165 -6 -367z"/>
<path d="M26982 9208 c-14 -14 -16 -42 -3 -34 7 5 23 46 17 46 -1 0 -7 -5 -14
-12z"/>
<path d="M36020 9199 c0 -5 5 -7 10 -4 6 3 10 8 10 11 0 2 -4 4 -10 4 -5 0
-10 -5 -10 -11z"/>
<path d="M22536 9192 c-3 -6 -1 -14 5 -17 15 -10 25 3 12 16 -7 7 -13 7 -17 1z"/>
<path d="M22530 9154 c0 -8 32 -33 43 -34 4 0 3 9 -3 20 -10 18 -40 29 -40 14z"/>
<path d="M32180 9145 c7 -8 17 -15 22 -15 6 0 5 7 -2 15 -7 8 -17 15 -22 15
-6 0 -5 -7 2 -15z"/>
<path d="M26940 9128 c-12 -22 -12 -22 6 -6 10 10 15 20 12 24 -4 3 -12 -5
-18 -18z"/>
<path d="M32115 9141 c-3 -5 -2 -16 1 -25 5 -13 9 -14 20 -5 11 9 14 8 14 -5
0 -9 5 -16 10 -16 17 0 11 15 -15 38 -13 12 -27 17 -30 13z"/>
<path d="M35970 9133 c0 -7 4 -13 9 -13 5 0 11 6 14 13 3 8 -1 14 -9 14 -8 0
-14 -6 -14 -14z"/>
<path d="M33795 9130 c-3 -6 1 -7 9 -4 18 7 21 14 7 14 -6 0 -13 -4 -16 -10z"/>
<path d="M35481 9124 c0 -11 3 -14 6 -6 3 7 2 16 -1 19 -3 4 -6 -2 -5 -13z"/>
<path d="M22536 9112 c-6 -11 0 -141 7 -149 3 -2 9 10 15 26 6 17 7 33 3 36
-5 2 -6 15 -4 27 5 28 -11 76 -21 60z"/>
<path d="M29215 9100 c-3 -5 -1 -10 4 -10 6 0 11 5 11 10 0 6 -2 10 -4 10 -3
0 -8 -4 -11 -10z"/>
<path d="M35473 9074 c-3 -8 -1 -34 5 -57 l10 -42 1 58 c1 57 -4 71 -16 41z"/>
<path d="M32190 9060 c0 -11 4 -20 9 -20 5 0 7 9 4 20 -3 11 -7 20 -9 20 -2 0
-4 -9 -4 -20z"/>
<path d="M35952 9040 c0 -19 2 -27 5 -17 2 9 2 25 0 35 -3 9 -5 1 -5 -18z"/>
<path d="M27745 8991 c-8 -27 11 -54 21 -28 3 9 1 24 -4 33 -9 16 -10 15 -17
-5z"/>
<path d="M35470 8958 c0 -7 5 -20 10 -28 8 -12 10 -9 10 13 0 15 -4 27 -10 27
-5 0 -10 -6 -10 -12z"/>
<path d="M22540 8904 c0 -22 2 -24 14 -14 8 6 12 18 9 26 -9 23 -23 16 -23
-12z"/>
<path d="M27750 8904 c0 -14 4 -23 10 -19 6 3 10 15 10 26 0 10 -4 19 -10 19
-5 0 -10 -12 -10 -26z"/>
<path d="M35481 8855 c-10 -140 -17 -822 -9 -830 20 -20 23 50 18 450 -3 242
-7 413 -9 380z"/>
<path d="M27750 8835 c0 -32 19 -52 21 -22 0 6 2 20 4 29 2 9 -3 19 -11 22
-10 4 -14 -4 -14 -29z"/>
<path d="M22540 8846 c0 -2 7 -9 15 -16 9 -7 15 -8 15 -2 0 5 -7 12 -15 16 -8
3 -15 4 -15 2z"/>
<path d="M32351 8833 c0 -5 4 -17 8 -28 7 -17 8 -17 13 8 4 19 1 27 -8 27 -8
0 -14 -3 -13 -7z"/>
<path d="M22561 8678 c0 -9 -4 -25 -7 -35 -5 -14 -4 -15 5 -7 7 7 11 22 8 35
-2 13 -5 16 -6 7z"/>
<path d="M27779 8643 c-2 -63 3 -133 11 -160 6 -22 9 -24 10 -8 4 32 5 39 14
64 5 15 4 26 -3 31 -7 3 -12 28 -13 53 -1 50 -17 66 -19 20z"/>
<path d="M28201 8604 c0 -11 3 -14 6 -6 3 7 2 16 -1 19 -3 4 -6 -2 -5 -13z"/>
<path d="M22561 8594 c0 -11 3 -14 6 -6 3 7 2 16 -1 19 -3 4 -6 -2 -5 -13z"/>
<path d="M30940 8560 c-13 -8 -12 -10 3 -10 9 0 17 5 17 10 0 12 -1 12 -20 0z"/>
<path d="M29127 8544 c-4 -4 -7 -14 -7 -23 0 -11 3 -12 11 -4 6 6 10 16 7 23
-2 6 -7 8 -11 4z"/>
<path d="M26420 8496 c0 -9 5 -16 10 -16 6 0 10 4 10 9 0 6 -4 13 -10 16 -5 3
-10 -1 -10 -9z"/>
<path d="M29150 8478 c0 -26 19 -61 21 -40 5 40 1 62 -11 62 -5 0 -10 -10 -10
-22z"/>
<path d="M26430 8445 c0 -8 4 -15 10 -15 5 0 7 7 4 15 -4 8 -8 15 -10 15 -2 0
-4 -7 -4 -15z"/>
<path d="M29215 8449 c-11 -17 1 -21 15 -4 8 9 8 15 2 15 -6 0 -14 -5 -17 -11z"/>
<path d="M30387 8449 c7 -7 15 -10 18 -7 3 3 -2 9 -12 12 -14 6 -15 5 -6 -5z"/>
<path d="M29180 8443 c1 -13 29 -59 30 -48 0 21 -13 55 -21 55 -5 0 -9 -3 -9
-7z"/>
<path d="M26910 8430 c0 -5 5 -10 11 -10 5 0 7 5 4 10 -3 6 -8 10 -11 10 -2 0
-4 -4 -4 -10z"/>
<path d="M29241 8437 c2 -1 13 -9 24 -17 19 -14 19 -14 6 3 -7 9 -18 17 -24
17 -6 0 -8 -1 -6 -3z"/>
<path d="M30100 8419 c0 -5 9 -13 20 -19 19 -10 25 -4 18 17 -4 10 -38 11 -38
2z"/>
<path d="M34663 8409 c2 -22 10 -24 26 -5 9 11 7 15 -8 19 -15 3 -19 0 -18
-14z"/>
<path d="M27735 8410 c-3 -6 1 -7 9 -4 18 7 21 14 7 14 -6 0 -13 -4 -16 -10z"/>
<path d="M30060 8410 c-13 -8 -13 -10 2 -10 9 0 20 5 23 10 8 13 -5 13 -25 0z"/>
<path d="M26411 8394 c0 -11 3 -14 6 -6 3 7 2 16 -1 19 -3 4 -6 -2 -5 -13z"/>
<path d="M29220 8400 c0 -5 5 -10 11 -10 5 0 7 5 4 10 -3 6 -8 10 -11 10 -2 0
-4 -4 -4 -10z"/>
<path d="M29290 8400 c0 -5 5 -10 11 -10 5 0 7 5 4 10 -3 6 -8 10 -11 10 -2 0
-4 -4 -4 -10z"/>
<path d="M29993 8374 c-27 -12 -27 -12 15 -9 23 2 42 -1 42 -6 0 -5 5 -9 12
-9 6 0 8 3 5 7 -4 3 -2 11 3 18 13 16 -39 16 -77 -1z"/>
<path d="M30911 8374 c0 -11 3 -14 6 -6 3 7 2 16 -1 19 -3 4 -6 -2 -5 -13z"/>
<path d="M26457 8368 c7 -8 10 -18 7 -21 -3 -3 4 -20 16 -37 12 -17 25 -29 28
-26 3 3 -2 14 -10 23 -9 10 -18 29 -20 42 -1 14 -10 27 -18 29 -12 4 -13 3 -3
-10z"/>
<path d="M27622 8363 c-9 -10 -31 -23 -47 -28 -17 -6 -31 -18 -31 -28 -2 -12
-1 -13 3 -2 4 13 26 20 36 13 2 -2 11 3 20 10 9 8 21 11 26 7 7 -4 8 1 4 11
-5 13 -3 16 10 11 9 -3 17 -2 17 4 0 6 5 7 10 4 6 -3 10 -1 10 4 0 17 -38 13
-58 -6z"/>
<path d="M29337 8369 c7 -7 15 -10 18 -7 3 3 -2 9 -12 12 -14 6 -15 5 -6 -5z"/>
<path d="M33721 8364 c0 -11 3 -14 6 -6 3 7 2 16 -1 19 -3 4 -6 -2 -5 -13z"/>
<path d="M26960 8356 c0 -9 5 -16 10 -16 6 0 10 4 10 9 0 6 -4 13 -10 16 -5 3
-10 -1 -10 -9z"/>
<path d="M29240 8345 c0 -14 3 -16 8 -7 5 7 16 10 24 7 8 -3 18 0 20 7 4 9 -4
13 -23 13 -23 1 -29 -4 -29 -20z"/>
<path d="M29970 8340 c0 -5 5 -10 11 -10 5 0 7 5 4 10 -3 6 -8 10 -11 10 -2 0
-4 -4 -4 -10z"/>
<path d="M33130 8341 c0 -6 4 -13 10 -16 6 -3 7 1 4 9 -7 18 -14 21 -14 7z"/>
<path d="M26990 8325 c0 -8 5 -15 10 -15 6 0 10 7 10 15 0 8 -4 15 -10 15 -5
0 -10 -7 -10 -15z"/>
<path d="M28277 8333 c-3 -5 -1 -17 4 -28 7 -17 8 -17 8 8 1 27 -4 34 -12 20z"/>
<path d="M29321 8324 c0 -11 3 -14 6 -6 3 7 2 16 -1 19 -3 4 -6 -2 -5 -13z"/>
<path d="M29885 8330 c-13 -6 -15 -9 -5 -9 8 0 22 4 30 9 18 12 2 12 -25 0z"/>
<path d="M29937 8319 c-4 -16 -11 -20 -26 -16 -27 7 -27 -5 0 -21 12 -8 18 -9
15 -3 -4 5 2 16 11 23 20 14 28 38 14 38 -5 0 -11 -10 -14 -21z"/>
<path d="M33170 8330 c18 -12 30 -13 30 -2 0 4 -10 9 -22 9 -18 2 -20 0 -8 -7z"/>
<path d="M33801 8324 c0 -11 3 -14 6 -6 3 7 2 16 -1 19 -3 4 -6 -2 -5 -13z"/>
<path d="M30910 8301 c0 -25 6 -27 13 -6 4 8 2 17 -3 20 -6 4 -10 -3 -10 -14z"/>
<path d="M26450 8295 c0 -8 4 -15 10 -15 5 0 7 7 4 15 -4 8 -8 15 -10 15 -2 0
-4 -7 -4 -15z"/>
<path d="M29840 8306 c0 -9 30 -14 35 -6 4 6 -3 10 -14 10 -12 0 -21 -2 -21
-4z"/>
<path d="M22550 8288 c0 -9 5 -20 10 -23 13 -8 13 5 0 25 -8 13 -10 13 -10 -2z"/>
<path d="M27468 8293 c7 -3 16 -2 19 1 4 3 -2 6 -13 5 -11 0 -14 -3 -6 -6z"/>
<path d="M29788 8293 c7 -3 16 -2 19 1 4 3 -2 6 -13 5 -11 0 -14 -3 -6 -6z"/>
<path d="M27428 8283 c7 -3 16 -2 19 1 4 3 -2 6 -13 5 -11 0 -14 -3 -6 -6z"/>
<path d="M29400 8269 c0 -5 5 -7 10 -4 6 3 10 8 10 11 0 2 -4 4 -10 4 -5 0
-10 -5 -10 -11z"/>
<path d="M32762 8260 c0 -14 2 -19 5 -12 2 6 2 18 0 25 -3 6 -5 1 -5 -13z"/>
<path d="M23070 8255 c0 -8 2 -15 4 -15 2 0 6 7 10 15 3 8 1 15 -4 15 -6 0
-10 -7 -10 -15z"/>
<path d="M27308 8263 c7 -3 16 -2 19 1 4 3 -2 6 -13 5 -11 0 -14 -3 -6 -6z"/>
<path d="M27375 8259 c18 -5 33 -5 39 1 7 7 -4 10 -29 9 -40 -1 -40 -1 -10
-10z"/>
<path d="M27445 8260 c-3 -5 -1 -10 4 -10 6 0 11 5 11 10 0 6 -2 10 -4 10 -3
0 -8 -4 -11 -10z"/>
<path d="M29633 8258 c5 -18 29 -16 34 2 4 13 3 13 -6 0 -7 -10 -11 -11 -11
-2 0 6 -5 12 -11 12 -6 0 -9 -6 -6 -12z"/>
<path d="M29715 8259 c-9 -13 21 -17 44 -5 22 12 22 13 -9 13 -17 0 -33 -4
-35 -8z"/>
<path d="M30911 8193 c1 -38 5 -72 9 -78 4 -5 10 -19 13 -30 3 -11 4 7 1 40
-2 33 -5 77 -6 98 -4 66 -19 39 -17 -30z"/>
<path d="M28321 8224 c0 -11 3 -14 6 -6 3 7 2 16 -1 19 -3 4 -6 -2 -5 -13z"/>
<path d="M23065 8220 c-3 -5 -1 -10 4 -10 6 0 11 5 11 10 0 6 -2 10 -4 10 -3
0 -8 -4 -11 -10z"/>
<path d="M35052 8198 c-2 -25 0 -29 8 -18 12 18 13 50 2 50 -4 0 -9 -15 -10
-32z"/>
<path d="M24923 8155 c0 -22 2 -30 4 -17 2 12 2 30 0 40 -3 9 -5 -1 -4 -23z"/>
<path d="M23042 8155 c3 -30 22 -28 26 3 2 15 -2 22 -12 22 -11 0 -15 -8 -14
-25z"/>
<path d="M24870 8136 c0 -8 4 -17 9 -20 5 -4 7 3 4 14 -6 23 -13 26 -13 6z"/>
<path d="M35017 8139 c7 -7 15 -10 18 -7 3 3 -2 9 -12 12 -14 6 -15 5 -6 -5z"/>
<path d="M30466 8124 c-5 -14 -4 -15 9 -4 17 14 19 20 6 20 -5 0 -12 -7 -15
-16z"/>
<path d="M22550 8120 c0 -5 5 -10 11 -10 5 0 7 5 4 10 -3 6 -8 10 -11 10 -2 0
-4 -4 -4 -10z"/>
<path d="M23030 8100 c-13 -8 -12 -10 3 -10 9 0 17 5 17 10 0 12 -1 12 -20 0z"/>
<path d="M24919 8072 c-3 -20 -2 -29 4 -23 5 5 7 19 5 32 -3 20 -5 19 -9 -9z"/>
<path d="M23010 8053 c0 -26 1 -26 14 -8 14 20 12 35 -5 35 -5 0 -9 -12 -9
-27z"/>
<path d="M31410 8059 c0 -5 5 -7 10 -4 6 3 10 8 10 11 0 2 -4 4 -10 4 -5 0
-10 -5 -10 -11z"/>
<path d="M22970 8024 c10 -11 9 -19 -4 -39 -9 -14 -21 -23 -26 -20 -6 4 -10 1
-10 -4 0 -19 15 -12 48 22 l31 32 -25 12 c-22 10 -24 10 -14 -3z"/>
<path d="M30940 8026 c0 -8 5 -18 10 -21 6 -3 10 1 10 9 0 8 -4 18 -10 21 -5
3 -10 -1 -10 -9z"/>
<path d="M22566 8015 c4 -8 11 -15 16 -15 6 0 5 6 -2 15 -7 8 -14 15 -16 15
-2 0 -1 -7 2 -15z"/>
<path d="M22610 8016 c0 -2 7 -7 16 -10 8 -3 12 -2 9 4 -6 10 -25 14 -25 6z"/>
<path d="M24893 7990 c-5 -19 -14 -35 -20 -35 -6 0 -15 -3 -19 -7 -4 -5 0 -8
9 -8 10 0 17 -4 17 -10 0 -17 19 -11 30 10 7 13 7 31 2 52 l-9 33 -10 -35z"/>
<path d="M32855 8009 c-4 -6 -5 -12 -2 -15 2 -3 7 2 10 11 7 17 1 20 -8 4z"/>
<path d="M35930 8005 c-7 -8 -10 -18 -7 -21 3 -4 -4 -15 -16 -26 -16 -15 -18
-18 -5 -14 10 3 20 1 23 -4 11 -18 23 -10 30 20 3 16 2 36 -3 45 -8 15 -10 15
-22 0z"/>
<path d="M24435 8000 c3 -5 10 -10 16 -10 5 0 9 5 9 10 0 6 -7 10 -16 10 -8 0
-12 -4 -9 -10z"/>
<path d="M35470 8000 c0 -5 4 -10 9 -10 6 0 13 5 16 10 3 6 -1 10 -9 10 -9 0
-16 -4 -16 -10z"/>
<path d="M22591 7987 c2 -1 13 -9 24 -17 19 -14 19 -14 6 3 -7 9 -18 17 -24
17 -6 0 -8 -1 -6 -3z"/>
<path d="M30930 7967 c0 -8 79 -2 87 7 3 3 -16 4 -41 3 -25 -1 -46 -6 -46 -10z"/>
<path d="M32820 7945 c-7 -9 -8 -15 -2 -15 5 0 12 7 16 15 3 8 4 15 2 15 -2 0
-9 -7 -16 -15z"/>
<path d="M30950 7946 c0 -2 8 -10 18 -17 15 -13 16 -12 3 4 -13 16 -21 21 -21
13z"/>
<path d="M31349 7923 c-13 -16 -12 -17 4 -4 16 13 21 21 13 21 -2 0 -10 -8
-17 -17z"/>
<path d="M24852 7905 c15 -16 20 -17 30 -6 11 11 10 13 0 7 -7 -4 -21 -2 -30
5 -15 12 -15 11 0 -6z"/>
<path d="M35916 7912 c-3 -6 -14 -9 -24 -7 -9 1 -12 0 -5 -2 7 -2 9 -12 6 -21
-4 -13 0 -12 18 5 12 12 20 25 17 28 -3 4 -9 2 -12 -3z"/>
<path d="M24446 7895 c4 -8 11 -15 16 -15 6 0 5 6 -2 15 -7 8 -14 15 -16 15
-2 0 -1 -7 2 -15z"/>
<path d="M24833 7848 c-20 -26 -26 -41 -15 -34 12 7 36 46 29 46 -3 0 -9 -6
-14 -12z"/>
<path d="M35849 7828 l-22 -33 31 29 c34 32 37 36 23 36 -5 0 -20 -15 -32 -32z"/>
<path d="M24490 7842 c0 -10 38 -42 50 -42 5 0 -2 11 -16 25 -26 26 -34 30
-34 17z"/>
</g>
</svg>
